<mxfile host="0dfd6ed1-3032-4307-b924-8f1581fee589" modified="2020-07-31T03:39:38.128Z" agent="5.0 (Windows NT 10.0; Win64; x64) AppleWebKit/537.36 (KHTML, like Gecko) Code/1.47.2 Chrome/78.0.3904.130 Electron/7.3.2 Safari/537.36" etag="E56zHUKnsdhlziXBFkPO" version="13.1.3" pages="2">
    <diagram id="6hGFLwfOUW9BJ-s0fimq" name="Flowchart">
        <mxGraphModel dx="1038" dy="667" grid="1" gridSize="10" guides="1" tooltips="1" connect="1" arrows="1" fold="1" page="1" pageScale="1" pageWidth="827" pageHeight="1169" math="0" shadow="0">
            <root>
                <mxCell id="0"/>
                <mxCell id="1" parent="0"/>
                <mxCell id="2" value="任务执行" style="swimlane;html=1;childLayout=stackLayout;resizeParent=1;resizeParentMax=0;startSize=20;rounded=0;shadow=0;" parent="1" vertex="1">
                    <mxGeometry x="80" y="50" width="830" height="1090" as="geometry"/>
                </mxCell>
                <mxCell id="3" value="Client" style="swimlane;html=1;startSize=20;" parent="2" vertex="1">
                    <mxGeometry y="20" width="170" height="1070" as="geometry">
                        <mxRectangle y="20" width="30" height="600" as="alternateBounds"/>
                    </mxGeometry>
                </mxCell>
                <mxCell id="64" value="开始" style="rounded=1;whiteSpace=wrap;html=1;fillColor=#333333;fontColor=#FFFFFF;absoluteArcSize=1;arcSize=44;" parent="3" vertex="1">
                    <mxGeometry x="40" y="220" width="90" height="30" as="geometry"/>
                </mxCell>
                <mxCell id="56" value="开始" style="rounded=1;whiteSpace=wrap;html=1;fillColor=#333333;fontColor=#FFFFFF;absoluteArcSize=1;arcSize=44;" parent="3" vertex="1">
                    <mxGeometry x="40" y="50" width="90" height="30" as="geometry"/>
                </mxCell>
                <mxCell id="63" value="得到执行 ID" style="rounded=0;whiteSpace=wrap;html=1;fillColor=#333333;fontColor=#FFFFFF;" parent="3" vertex="1">
                    <mxGeometry x="40" y="130" width="90" height="30" as="geometry"/>
                </mxCell>
                <mxCell id="4" value="JobService" style="swimlane;html=1;startSize=20;" parent="2" vertex="1">
                    <mxGeometry x="170" y="20" width="230" height="1070" as="geometry">
                        <mxRectangle x="170" y="20" width="30" height="460" as="alternateBounds"/>
                    </mxGeometry>
                </mxCell>
                <mxCell id="70" value="Job ID" style="text;html=1;strokeColor=none;fillColor=none;align=center;verticalAlign=middle;whiteSpace=wrap;rounded=0;" parent="4" vertex="1">
                    <mxGeometry x="-60" y="40" width="100" height="20" as="geometry"/>
                </mxCell>
                <mxCell id="67" value="执行 ID + Job ID" style="text;html=1;strokeColor=none;fillColor=none;align=center;verticalAlign=middle;whiteSpace=wrap;rounded=0;" parent="4" vertex="1">
                    <mxGeometry x="-37" y="210" width="100" height="20" as="geometry"/>
                </mxCell>
                <mxCell id="izEMSaz2lAZoi_h1nXD7-84" value="发送执行结束事件" style="rounded=0;whiteSpace=wrap;html=1;fillColor=#333333;fontColor=#FFFFFF;" parent="4" vertex="1">
                    <mxGeometry x="67.75" y="620" width="109.5" height="30" as="geometry"/>
                </mxCell>
                <mxCell id="12" value="更新 Task 开始的状态" style="rounded=0;whiteSpace=wrap;html=1;fillColor=#333333;fontColor=#FFFFFF;" parent="4" vertex="1">
                    <mxGeometry x="77.5" y="455" width="90" height="30" as="geometry"/>
                </mxCell>
                <mxCell id="75" style="edgeStyle=orthogonalEdgeStyle;rounded=0;orthogonalLoop=1;jettySize=auto;html=1;strokeWidth=2;" parent="4" source="11" target="12" edge="1">
                    <mxGeometry relative="1" as="geometry"/>
                </mxCell>
                <mxCell id="11" value="异步执行 Task" style="rounded=0;whiteSpace=wrap;html=1;fillColor=#333333;fontColor=#FFFFFF;" parent="4" vertex="1">
                    <mxGeometry x="77.5" y="376" width="90" height="30" as="geometry"/>
                </mxCell>
                <mxCell id="21" style="edgeStyle=orthogonalEdgeStyle;rounded=0;orthogonalLoop=1;jettySize=auto;html=1;entryX=0.5;entryY=0;entryDx=0;entryDy=0;strokeWidth=2;fontColor=#FFFFFF;" parent="4" source="10" target="11" edge="1">
                    <mxGeometry relative="1" as="geometry"/>
                </mxCell>
                <mxCell id="20" style="edgeStyle=orthogonalEdgeStyle;rounded=0;orthogonalLoop=1;jettySize=auto;html=1;fontColor=#FFFFFF;strokeWidth=2;" parent="4" source="7" target="10" edge="1">
                    <mxGeometry relative="1" as="geometry"/>
                </mxCell>
                <mxCell id="7" value="执行 Job" style="rounded=0;whiteSpace=wrap;html=1;fillColor=#333333;fontColor=#FFFFFF;" parent="4" vertex="1">
                    <mxGeometry x="77.5" y="220" width="90" height="30" as="geometry"/>
                </mxCell>
                <mxCell id="izEMSaz2lAZoi_h1nXD7-85" style="edgeStyle=none;rounded=0;orthogonalLoop=1;jettySize=auto;html=1;entryX=0.5;entryY=0;entryDx=0;entryDy=0;strokeWidth=2;fontSize=14;fontColor=#333333;" parent="4" source="34" target="izEMSaz2lAZoi_h1nXD7-84" edge="1">
                    <mxGeometry relative="1" as="geometry"/>
                </mxCell>
                <mxCell id="34" value="更新日志" style="rounded=0;whiteSpace=wrap;html=1;fillColor=#333333;fontColor=#FFFFFF;" parent="4" vertex="1">
                    <mxGeometry x="77.5" y="533" width="90" height="30" as="geometry"/>
                </mxCell>
                <mxCell id="61" style="edgeStyle=orthogonalEdgeStyle;rounded=0;orthogonalLoop=1;jettySize=auto;html=1;strokeWidth=2;" parent="4" source="58" target="60" edge="1">
                    <mxGeometry relative="1" as="geometry"/>
                </mxCell>
                <mxCell id="58" value="准备执行 Job" style="rounded=0;whiteSpace=wrap;html=1;fillColor=#333333;fontColor=#FFFFFF;" parent="4" vertex="1">
                    <mxGeometry x="77.5" y="50" width="90" height="30" as="geometry"/>
                </mxCell>
                <mxCell id="60" value="创建执行 ID 和 执行任务的 Tasks" style="rounded=0;whiteSpace=wrap;html=1;fillColor=#333333;fontColor=#FFFFFF;" parent="4" vertex="1">
                    <mxGeometry x="77.5" y="120" width="90" height="50" as="geometry"/>
                </mxCell>
                <mxCell id="10" value="找到 Job 中入度为 0, READY 的自动 Task" style="rounded=0;whiteSpace=wrap;html=1;fillColor=#333333;fontColor=#FFFFFF;" parent="4" vertex="1">
                    <mxGeometry x="63.5" y="290" width="118" height="47" as="geometry"/>
                </mxCell>
                <mxCell id="5" value="Task" style="swimlane;html=1;startSize=20;fontSize=14;" parent="2" vertex="1">
                    <mxGeometry x="400" y="20" width="160" height="1070" as="geometry"/>
                </mxCell>
                <mxCell id="23" value="执行 Task 逻辑&lt;br&gt;execute()" style="rounded=0;whiteSpace=wrap;html=1;fillColor=#fff2cc;strokeColor=#d6b656;fontStyle=1;fontColor=#333333;" parent="5" vertex="1">
                    <mxGeometry x="35" y="447.5" width="90" height="45" as="geometry"/>
                </mxCell>
                <mxCell id="39" style="edgeStyle=orthogonalEdgeStyle;rounded=0;orthogonalLoop=1;jettySize=auto;html=1;strokeWidth=2;fontColor=#FFFFFF;dashed=1;" parent="2" source="30" edge="1">
                    <mxGeometry relative="1" as="geometry">
                        <mxPoint x="248" y="270" as="targetPoint"/>
                        <Array as="points">
                            <mxPoint x="191" y="1022"/>
                            <mxPoint x="191" y="270"/>
                        </Array>
                    </mxGeometry>
                </mxCell>
                <mxCell id="59" style="edgeStyle=orthogonalEdgeStyle;rounded=0;orthogonalLoop=1;jettySize=auto;html=1;entryX=0;entryY=0.5;entryDx=0;entryDy=0;strokeWidth=2;" parent="2" source="56" target="58" edge="1">
                    <mxGeometry relative="1" as="geometry"/>
                </mxCell>
                <mxCell id="65" style="edgeStyle=orthogonalEdgeStyle;rounded=0;orthogonalLoop=1;jettySize=auto;html=1;strokeWidth=2;" parent="2" source="60" target="63" edge="1">
                    <mxGeometry relative="1" as="geometry"/>
                </mxCell>
                <mxCell id="66" style="edgeStyle=orthogonalEdgeStyle;rounded=0;orthogonalLoop=1;jettySize=auto;html=1;strokeWidth=2;" parent="2" source="64" target="7" edge="1">
                    <mxGeometry relative="1" as="geometry"/>
                </mxCell>
                <mxCell id="24" style="edgeStyle=orthogonalEdgeStyle;rounded=0;orthogonalLoop=1;jettySize=auto;html=1;strokeWidth=2;fontColor=#FFFFFF;" parent="2" source="12" target="23" edge="1">
                    <mxGeometry relative="1" as="geometry"/>
                </mxCell>
                <mxCell id="71" style="edgeStyle=orthogonalEdgeStyle;rounded=0;orthogonalLoop=1;jettySize=auto;html=1;entryX=1;entryY=0.5;entryDx=0;entryDy=0;strokeWidth=2;" parent="2" source="23" target="34" edge="1">
                    <mxGeometry relative="1" as="geometry">
                        <Array as="points">
                            <mxPoint x="480" y="568"/>
                        </Array>
                    </mxGeometry>
                </mxCell>
                <mxCell id="49" value="Listener" style="swimlane;html=1;startSize=20;" parent="2" vertex="1">
                    <mxGeometry x="560" y="20" width="270" height="1070" as="geometry"/>
                </mxCell>
                <mxCell id="74" value="失败处理" style="rounded=0;whiteSpace=wrap;html=1;fillColor=#333333;fontColor=#FFFFFF;" parent="49" vertex="1">
                    <mxGeometry x="20" y="800" width="69" height="30" as="geometry"/>
                </mxCell>
                <mxCell id="izEMSaz2lAZoi_h1nXD7-91" style="edgeStyle=none;rounded=0;orthogonalLoop=1;jettySize=auto;html=1;strokeWidth=2;fontSize=14;fontColor=#333333;" parent="49" source="izEMSaz2lAZoi_h1nXD7-88" target="72" edge="1">
                    <mxGeometry relative="1" as="geometry"/>
                </mxCell>
                <mxCell id="izEMSaz2lAZoi_h1nXD7-88" value="收到执行结束事件" style="rounded=0;whiteSpace=wrap;html=1;fillColor=#333333;fontColor=#FFFFFF;" parent="49" vertex="1">
                    <mxGeometry x="80.25" y="620" width="109.5" height="30" as="geometry"/>
                </mxCell>
                <mxCell id="izEMSaz2lAZoi_h1nXD7-92" style="edgeStyle=orthogonalEdgeStyle;rounded=0;orthogonalLoop=1;jettySize=auto;html=1;entryX=0.5;entryY=0;entryDx=0;entryDy=0;strokeWidth=2;fontSize=14;fontColor=#333333;" parent="49" source="72" target="74" edge="1">
                    <mxGeometry relative="1" as="geometry"/>
                </mxCell>
                <mxCell id="izEMSaz2lAZoi_h1nXD7-93" style="edgeStyle=orthogonalEdgeStyle;rounded=0;orthogonalLoop=1;jettySize=auto;html=1;strokeWidth=2;fontSize=14;fontColor=#333333;" parent="49" source="72" target="27" edge="1">
                    <mxGeometry relative="1" as="geometry">
                        <Array as="points">
                            <mxPoint x="195" y="730"/>
                        </Array>
                    </mxGeometry>
                </mxCell>
                <mxCell id="72" value="成功" style="rhombus;whiteSpace=wrap;html=1;rounded=0;fontColor=#FFFFFF;fillColor=#333333;" parent="49" vertex="1">
                    <mxGeometry x="102.5" y="700" width="65" height="60" as="geometry"/>
                </mxCell>
                <mxCell id="81" style="edgeStyle=orthogonalEdgeStyle;rounded=0;orthogonalLoop=1;jettySize=auto;html=1;strokeWidth=2;" parent="49" source="27" target="80" edge="1">
                    <mxGeometry relative="1" as="geometry"/>
                </mxCell>
                <mxCell id="82" style="edgeStyle=orthogonalEdgeStyle;rounded=0;orthogonalLoop=1;jettySize=auto;html=1;strokeWidth=2;entryX=0.5;entryY=0;entryDx=0;entryDy=0;" parent="49" source="80" target="30" edge="1">
                    <mxGeometry relative="1" as="geometry">
                        <mxPoint x="195" y="973" as="targetPoint"/>
                    </mxGeometry>
                </mxCell>
                <mxCell id="30" value="执行 Task 所属 Job" style="rounded=0;whiteSpace=wrap;html=1;fillColor=#333333;fontColor=#FFFFFF;" parent="49" vertex="1">
                    <mxGeometry x="150" y="980" width="90" height="44" as="geometry"/>
                </mxCell>
                <mxCell id="80" value="Task 的后续任务入度减 1" style="rounded=0;whiteSpace=wrap;html=1;fillColor=#333333;fontColor=#FFFFFF;" parent="49" vertex="1">
                    <mxGeometry x="150" y="888" width="90" height="41" as="geometry"/>
                </mxCell>
                <mxCell id="27" value="成功处理" style="rounded=0;whiteSpace=wrap;html=1;fillColor=#333333;fontColor=#FFFFFF;" parent="49" vertex="1">
                    <mxGeometry x="150" y="800" width="90" height="30" as="geometry"/>
                </mxCell>
                <mxCell id="izEMSaz2lAZoi_h1nXD7-89" style="edgeStyle=none;rounded=0;orthogonalLoop=1;jettySize=auto;html=1;strokeWidth=2;fontSize=14;fontColor=#333333;" parent="2" source="izEMSaz2lAZoi_h1nXD7-84" target="izEMSaz2lAZoi_h1nXD7-88" edge="1">
                    <mxGeometry relative="1" as="geometry"/>
                </mxCell>
            </root>
        </mxGraphModel>
    </diagram>
    <diagram id="a9T4TCetVIo2ZtlSvRRl" name="Job Orchestration">
        <mxGraphModel dx="1038" dy="667" grid="1" gridSize="10" guides="1" tooltips="1" connect="1" arrows="1" fold="1" page="1" pageScale="1" pageWidth="827" pageHeight="1169" math="0" shadow="0">
            <root>
                <mxCell id="mjeOCrbBiDs6R1apu2A3-0"/>
                <mxCell id="mjeOCrbBiDs6R1apu2A3-1" parent="mjeOCrbBiDs6R1apu2A3-0"/>
                <mxCell id="nG__DPVO9xfzbvcBz8Nz-7" style="rounded=0;orthogonalLoop=1;jettySize=auto;html=1;strokeWidth=2;exitX=1;exitY=0.5;exitDx=0;exitDy=0;entryX=0;entryY=0.25;entryDx=0;entryDy=0;" parent="mjeOCrbBiDs6R1apu2A3-1" source="nG__DPVO9xfzbvcBz8Nz-0" target="nG__DPVO9xfzbvcBz8Nz-3" edge="1">
                    <mxGeometry relative="1" as="geometry"/>
                </mxCell>
                <mxCell id="nG__DPVO9xfzbvcBz8Nz-0" value="1" style="rounded=0;whiteSpace=wrap;html=1;fontSize=16;fontColor=#FFFFFF;fillColor=#333333;" parent="mjeOCrbBiDs6R1apu2A3-1" vertex="1">
                    <mxGeometry x="59" y="170" width="90" height="40" as="geometry"/>
                </mxCell>
                <mxCell id="nG__DPVO9xfzbvcBz8Nz-8" style="edgeStyle=none;rounded=0;orthogonalLoop=1;jettySize=auto;html=1;entryX=0;entryY=0.75;entryDx=0;entryDy=0;strokeWidth=2;exitX=1;exitY=0.5;exitDx=0;exitDy=0;" parent="mjeOCrbBiDs6R1apu2A3-1" source="nG__DPVO9xfzbvcBz8Nz-2" target="nG__DPVO9xfzbvcBz8Nz-3" edge="1">
                    <mxGeometry relative="1" as="geometry"/>
                </mxCell>
                <mxCell id="nG__DPVO9xfzbvcBz8Nz-2" value="2" style="rounded=0;whiteSpace=wrap;html=1;fontSize=16;fontColor=#FFFFFF;fillColor=#333333;" parent="mjeOCrbBiDs6R1apu2A3-1" vertex="1">
                    <mxGeometry x="59" y="250" width="90" height="40" as="geometry"/>
                </mxCell>
                <mxCell id="nG__DPVO9xfzbvcBz8Nz-11" style="edgeStyle=none;rounded=0;orthogonalLoop=1;jettySize=auto;html=1;entryX=0;entryY=0.25;entryDx=0;entryDy=0;strokeWidth=2;exitX=1;exitY=1;exitDx=0;exitDy=0;" parent="mjeOCrbBiDs6R1apu2A3-1" source="nG__DPVO9xfzbvcBz8Nz-3" target="nG__DPVO9xfzbvcBz8Nz-6" edge="1">
                    <mxGeometry relative="1" as="geometry"/>
                </mxCell>
                <mxCell id="nG__DPVO9xfzbvcBz8Nz-3" value="3" style="rounded=0;whiteSpace=wrap;html=1;fontSize=16;fontColor=#FFFFFF;fillColor=#333333;" parent="mjeOCrbBiDs6R1apu2A3-1" vertex="1">
                    <mxGeometry x="219" y="210" width="90" height="40" as="geometry"/>
                </mxCell>
                <mxCell id="nG__DPVO9xfzbvcBz8Nz-9" style="edgeStyle=none;rounded=0;orthogonalLoop=1;jettySize=auto;html=1;entryX=0;entryY=0.5;entryDx=0;entryDy=0;strokeWidth=2;" parent="mjeOCrbBiDs6R1apu2A3-1" source="nG__DPVO9xfzbvcBz8Nz-4" target="nG__DPVO9xfzbvcBz8Nz-5" edge="1">
                    <mxGeometry relative="1" as="geometry"/>
                </mxCell>
                <mxCell id="nG__DPVO9xfzbvcBz8Nz-4" value="4" style="rounded=0;whiteSpace=wrap;html=1;fontSize=16;fontColor=#FFFFFF;fillColor=#333333;" parent="mjeOCrbBiDs6R1apu2A3-1" vertex="1">
                    <mxGeometry x="59" y="340" width="90" height="40" as="geometry"/>
                </mxCell>
                <mxCell id="nG__DPVO9xfzbvcBz8Nz-10" style="edgeStyle=none;rounded=0;orthogonalLoop=1;jettySize=auto;html=1;entryX=0;entryY=0.75;entryDx=0;entryDy=0;strokeWidth=2;exitX=1;exitY=0;exitDx=0;exitDy=0;" parent="mjeOCrbBiDs6R1apu2A3-1" source="nG__DPVO9xfzbvcBz8Nz-5" target="nG__DPVO9xfzbvcBz8Nz-6" edge="1">
                    <mxGeometry relative="1" as="geometry"/>
                </mxCell>
                <mxCell id="nG__DPVO9xfzbvcBz8Nz-5" value="5" style="rounded=0;whiteSpace=wrap;html=1;fontSize=16;fontColor=#FFFFFF;fillColor=#333333;" parent="mjeOCrbBiDs6R1apu2A3-1" vertex="1">
                    <mxGeometry x="219" y="340" width="90" height="40" as="geometry"/>
                </mxCell>
                <mxCell id="nG__DPVO9xfzbvcBz8Nz-15" style="edgeStyle=none;rounded=0;orthogonalLoop=1;jettySize=auto;html=1;entryX=0;entryY=0.5;entryDx=0;entryDy=0;strokeWidth=2;exitX=1;exitY=0;exitDx=0;exitDy=0;" parent="mjeOCrbBiDs6R1apu2A3-1" source="nG__DPVO9xfzbvcBz8Nz-6" target="nG__DPVO9xfzbvcBz8Nz-13" edge="1">
                    <mxGeometry relative="1" as="geometry"/>
                </mxCell>
                <mxCell id="nG__DPVO9xfzbvcBz8Nz-16" style="edgeStyle=none;rounded=0;orthogonalLoop=1;jettySize=auto;html=1;entryX=0;entryY=0.5;entryDx=0;entryDy=0;strokeWidth=2;exitX=1;exitY=1;exitDx=0;exitDy=0;" parent="mjeOCrbBiDs6R1apu2A3-1" source="nG__DPVO9xfzbvcBz8Nz-6" target="nG__DPVO9xfzbvcBz8Nz-12" edge="1">
                    <mxGeometry relative="1" as="geometry"/>
                </mxCell>
                <mxCell id="nG__DPVO9xfzbvcBz8Nz-6" value="6" style="rounded=0;whiteSpace=wrap;html=1;fontSize=16;fontColor=#FFFFFF;fillColor=#333333;" parent="mjeOCrbBiDs6R1apu2A3-1" vertex="1">
                    <mxGeometry x="389" y="270" width="90" height="40" as="geometry"/>
                </mxCell>
                <mxCell id="nG__DPVO9xfzbvcBz8Nz-19" style="edgeStyle=none;rounded=0;orthogonalLoop=1;jettySize=auto;html=1;entryX=0;entryY=0.75;entryDx=0;entryDy=0;strokeWidth=2;exitX=1;exitY=0;exitDx=0;exitDy=0;" parent="mjeOCrbBiDs6R1apu2A3-1" source="nG__DPVO9xfzbvcBz8Nz-12" target="nG__DPVO9xfzbvcBz8Nz-17" edge="1">
                    <mxGeometry relative="1" as="geometry"/>
                </mxCell>
                <mxCell id="nG__DPVO9xfzbvcBz8Nz-12" value="8" style="rounded=0;whiteSpace=wrap;html=1;fontSize=16;fontColor=#FFFFFF;fillColor=#333333;" parent="mjeOCrbBiDs6R1apu2A3-1" vertex="1">
                    <mxGeometry x="529" y="330" width="90" height="40" as="geometry"/>
                </mxCell>
                <mxCell id="nG__DPVO9xfzbvcBz8Nz-18" style="edgeStyle=none;rounded=0;orthogonalLoop=1;jettySize=auto;html=1;strokeWidth=2;entryX=0;entryY=0.25;entryDx=0;entryDy=0;" parent="mjeOCrbBiDs6R1apu2A3-1" source="nG__DPVO9xfzbvcBz8Nz-13" target="nG__DPVO9xfzbvcBz8Nz-17" edge="1">
                    <mxGeometry relative="1" as="geometry"/>
                </mxCell>
                <mxCell id="nG__DPVO9xfzbvcBz8Nz-13" value="7" style="rounded=0;whiteSpace=wrap;html=1;fontSize=16;fontColor=#FFFFFF;fillColor=#333333;" parent="mjeOCrbBiDs6R1apu2A3-1" vertex="1">
                    <mxGeometry x="529" y="210" width="90" height="40" as="geometry"/>
                </mxCell>
                <mxCell id="nG__DPVO9xfzbvcBz8Nz-17" value="9" style="rounded=0;whiteSpace=wrap;html=1;fontSize=16;fontColor=#FFFFFF;fillColor=#333333;" parent="mjeOCrbBiDs6R1apu2A3-1" vertex="1">
                    <mxGeometry x="679" y="270" width="90" height="40" as="geometry"/>
                </mxCell>
                <mxCell id="nG__DPVO9xfzbvcBz8Nz-20" value="并行任务编排" style="text;html=1;strokeColor=#6c8ebf;fillColor=#dae8fc;align=center;verticalAlign=middle;whiteSpace=wrap;rounded=0;fontSize=20;" parent="mjeOCrbBiDs6R1apu2A3-1" vertex="1">
                    <mxGeometry x="329" y="80" width="160" height="30" as="geometry"/>
                </mxCell>
                <mxCell id="HBYHVJVxWTVsO3riy6Tx-0" value="" style="rounded=1;whiteSpace=wrap;html=1;fontSize=16;fillColor=none;dashed=1;arcSize=6;strokeColor=#333333;" parent="mjeOCrbBiDs6R1apu2A3-1" vertex="1">
                    <mxGeometry x="40" y="150" width="130" height="250" as="geometry"/>
                </mxCell>
                <mxCell id="HBYHVJVxWTVsO3riy6Tx-1" value="" style="rounded=1;whiteSpace=wrap;html=1;fontSize=16;fillColor=none;dashed=1;arcSize=6;strokeColor=#333333;" parent="mjeOCrbBiDs6R1apu2A3-1" vertex="1">
                    <mxGeometry x="509" y="190" width="130" height="200" as="geometry"/>
                </mxCell>
            </root>
        </mxGraphModel>
    </diagram>
</mxfile>
